<?xml version="1.0" encoding="UTF-8" standalone="no"?>
<!DOCTYPE svg PUBLIC "-//W3C//DTD SVG 1.1//EN"
 "http://www.w3.org/Graphics/SVG/1.1/DTD/svg11.dtd">
<!-- Generated by graphviz version 14.1.4 (20260321.0153)
 -->
<!-- Title: skills Pages: 1 -->
<svg width="1720pt" height="531pt"
 viewBox="0.00 0.00 1720.00 531.00" xmlns="http://www.w3.org/2000/svg" xmlns:xlink="http://www.w3.org/1999/xlink">
<g id="graph0" class="graph" transform="scale(1 1) rotate(0) translate(72 459.25)">
<title>skills</title>
<polygon fill="white" stroke="none" points="-72,72 -72,-459.25 1648,-459.25 1648,72 -72,72"/>
<text xml:space="preserve" text-anchor="middle" x="788" y="-360.45" font-family="Helvetica,sans-Serif" font-size="24.00">Claude Code Skills Graph</text>
<g id="clust1" class="cluster">
<title>cluster_Daily_routine</title>
<path fill="#e8b4b8" fill-opacity="0.250980" stroke="#e8b4b8" d="M20,-139.75C20,-139.75 362,-139.75 362,-139.75 368,-139.75 374,-145.75 374,-151.75 374,-151.75 374,-334.5 374,-334.5 374,-340.5 368,-346.5 362,-346.5 362,-346.5 20,-346.5 20,-346.5 14,-346.5 8,-340.5 8,-334.5 8,-334.5 8,-151.75 8,-151.75 8,-145.75 14,-139.75 20,-139.75"/>
<text xml:space="preserve" text-anchor="middle" x="191" y="-329.2" font-family="Helvetica Bold" font-size="14.00">Daily routine</text>
</g>
<g id="clust2" class="cluster">
<title>cluster_Engineering</title>
<path fill="#b8d4b8" fill-opacity="0.250980" stroke="#b8d4b8" d="M935,-139.75C935,-139.75 1199,-139.75 1199,-139.75 1205,-139.75 1211,-145.75 1211,-151.75 1211,-151.75 1211,-202.75 1211,-202.75 1211,-208.75 1205,-214.75 1199,-214.75 1199,-214.75 935,-214.75 935,-214.75 929,-214.75 923,-208.75 923,-202.75 923,-202.75 923,-151.75 923,-151.75 923,-145.75 929,-139.75 935,-139.75"/>
<text xml:space="preserve" text-anchor="middle" x="1067" y="-197.45" font-family="Helvetica Bold" font-size="14.00">Engineering</text>
</g>
<g id="clust3" class="cluster">
<title>cluster_Planning</title>
<path fill="#d0d0d0" fill-opacity="0.250980" stroke="#d0d0d0" d="M1496,-8C1496,-8 1556,-8 1556,-8 1562,-8 1568,-14 1568,-20 1568,-20 1568,-202.75 1568,-202.75 1568,-208.75 1562,-214.75 1556,-214.75 1556,-214.75 1496,-214.75 1496,-214.75 1490,-214.75 1484,-208.75 1484,-202.75 1484,-202.75 1484,-20 1484,-20 1484,-14 1490,-8 1496,-8"/>
<text xml:space="preserve" text-anchor="middle" x="1526" y="-197.45" font-family="Helvetica Bold" font-size="14.00">Planning</text>
</g>
<g id="clust4" class="cluster">
<title>cluster_Incident</title>
<path fill="#d4c4a8" fill-opacity="0.250980" stroke="#d4c4a8" d="M1250,-139.75C1250,-139.75 1348,-139.75 1348,-139.75 1354,-139.75 1360,-145.75 1360,-151.75 1360,-151.75 1360,-202.75 1360,-202.75 1360,-208.75 1354,-214.75 1348,-214.75 1348,-214.75 1250,-214.75 1250,-214.75 1244,-214.75 1238,-208.75 1238,-202.75 1238,-202.75 1238,-151.75 1238,-151.75 1238,-145.75 1244,-139.75 1250,-139.75"/>
<text xml:space="preserve" text-anchor="middle" x="1299" y="-197.45" font-family="Helvetica Bold" font-size="14.00">Incident</text>
</g>
<g id="clust5" class="cluster">
<title>cluster_Growth</title>
<path fill="#d0d0d0" fill-opacity="0.250980" stroke="#d0d0d0" d="M1399,-139.75C1399,-139.75 1445,-139.75 1445,-139.75 1451,-139.75 1457,-145.75 1457,-151.75 1457,-151.75 1457,-202.75 1457,-202.75 1457,-208.75 1451,-214.75 1445,-214.75 1445,-214.75 1399,-214.75 1399,-214.75 1393,-214.75 1387,-208.75 1387,-202.75 1387,-202.75 1387,-151.75 1387,-151.75 1387,-145.75 1393,-139.75 1399,-139.75"/>
<text xml:space="preserve" text-anchor="middle" x="1422" y="-197.45" font-family="Helvetica Bold" font-size="14.00">Growth</text>
</g>
<g id="clust6" class="cluster">
<title>cluster_services</title>
<path fill="white" stroke="#888888" stroke-dasharray="5,2" d="M507,-8C507,-8 1336,-8 1336,-8 1342,-8 1348,-14 1348,-20 1348,-20 1348,-71 1348,-71 1348,-77 1342,-83 1336,-83 1336,-83 507,-83 507,-83 501,-83 495,-77 495,-71 495,-71 495,-20 495,-20 495,-14 501,-8 507,-8"/>
<text xml:space="preserve" text-anchor="middle" x="921.5" y="-65.7" font-family="Helvetica Bold" font-size="14.00">Services &amp; Integrations</text>
</g>
<!-- start&#45;my&#45;day -->
<g id="node1" class="node">
<title>start&#45;my&#45;day</title>
<g id="a_node1"><a xlink:title="Morning planning routine">
<path fill="#e8b4b8" stroke="black" stroke-width="4" d="M234.5,-315.5C234.5,-315.5 179.5,-315.5 179.5,-315.5 173.5,-315.5 167.5,-309.5 167.5,-303.5 167.5,-303.5 167.5,-291.5 167.5,-291.5 167.5,-285.5 173.5,-279.5 179.5,-279.5 179.5,-279.5 234.5,-279.5 234.5,-279.5 240.5,-279.5 246.5,-285.5 246.5,-291.5 246.5,-291.5 246.5,-303.5 246.5,-303.5 246.5,-309.5 240.5,-315.5 234.5,-315.5"/>
<text xml:space="preserve" text-anchor="middle" x="207" y="-293.05" font-family="Helvetica,sans-Serif" font-size="11.00">/start&#45;my&#45;day</text>
</a>
</g>
</g>
<!-- sync&#45;meetings -->
<g id="node3" class="node">
<title>sync&#45;meetings</title>
<g id="a_node3"><a xlink:title="Pull meeting notes from Notion">
<path fill="#e8b4b8" stroke="black" stroke-width="4" d="M241,-183.75C241,-183.75 177,-183.75 177,-183.75 171,-183.75 165,-177.75 165,-171.75 165,-171.75 165,-159.75 165,-159.75 165,-153.75 171,-147.75 177,-147.75 177,-147.75 241,-147.75 241,-147.75 247,-147.75 253,-153.75 253,-159.75 253,-159.75 253,-171.75 253,-171.75 253,-177.75 247,-183.75 241,-183.75"/>
<text xml:space="preserve" text-anchor="middle" x="209" y="-161.3" font-family="Helvetica,sans-Serif" font-size="11.00">/sync&#45;meetings</text>
</a>
</g>
</g>
<!-- start&#45;my&#45;day&#45;&gt;sync&#45;meetings -->
<g id="edge1" class="edge">
<title>start&#45;my&#45;day&#45;&gt;sync&#45;meetings</title>
<path fill="none" stroke="#cc4444" stroke-width="2" d="M201.92,-277.6C198.76,-263.6 195.57,-244.03 197.25,-226.75 198.22,-216.73 200.09,-205.89 202.05,-196.22"/>
<polygon fill="#cc4444" stroke="#cc4444" stroke-width="2" points="204.77,-196.9 203.72,-188.49 199.3,-195.72 204.77,-196.9"/>
<text xml:space="preserve" text-anchor="middle" x="206.62" y="-227.95" font-family="Helvetica,sans-Serif" font-size="9.00">calls</text>
</g>
<!-- personal&#45;assistant -->
<g id="node4" class="node">
<title>personal&#45;assistant</title>
<g id="a_node4"><a xlink:title="Calendar and action item tracking">
<path fill="#e8b4b8" stroke="black" stroke-width="2.8" d="M110,-183.75C110,-183.75 28,-183.75 28,-183.75 22,-183.75 16,-177.75 16,-171.75 16,-171.75 16,-159.75 16,-159.75 16,-153.75 22,-147.75 28,-147.75 28,-147.75 110,-147.75 110,-147.75 116,-147.75 122,-153.75 122,-159.75 122,-159.75 122,-171.75 122,-171.75 122,-177.75 116,-183.75 110,-183.75"/>
<text xml:space="preserve" text-anchor="middle" x="69" y="-161.3" font-family="Helvetica,sans-Serif" font-size="11.00">/personal&#45;assistant</text>
</a>
</g>
</g>
<!-- start&#45;my&#45;day&#45;&gt;personal&#45;assistant -->
<g id="edge2" class="edge">
<title>start&#45;my&#45;day&#45;&gt;personal&#45;assistant</title>
<path fill="none" stroke="#cc4444" stroke-width="2" d="M186.93,-277.63C162.95,-255.08 122.72,-217.26 96.02,-192.15"/>
<polygon fill="#cc4444" stroke="#cc4444" stroke-width="2" points="98.15,-190.32 90.41,-186.88 94.32,-194.4 98.15,-190.32"/>
<text xml:space="preserve" text-anchor="middle" x="151.51" y="-227.95" font-family="Helvetica,sans-Serif" font-size="9.00">calls</text>
</g>
<!-- svc_google_calendar -->
<g id="node15" class="node">
<title>svc_google_calendar</title>
<ellipse fill="#f0f0f0" stroke="black" stroke-width="2.8" cx="556" cy="-34" rx="52.51" ry="18"/>
<text xml:space="preserve" text-anchor="middle" x="556" y="-30.12" font-family="Helvetica,sans-Serif" font-size="10.00">Google Calendar</text>
</g>
<!-- start&#45;my&#45;day&#45;&gt;svc_google_calendar -->
<g id="edge6" class="edge">
<title>start&#45;my&#45;day&#45;&gt;svc_google_calendar</title>
<path fill="none" stroke="#888888" stroke-width="1.7" stroke-dasharray="5,2" d="M248.3,-283.22C279.38,-272.5 322.53,-256.01 358,-236.5 432.31,-195.64 426.72,-155.64 486,-95 499.41,-81.28 515.61,-67.25 529.05,-56.21"/>
<polygon fill="#888888" stroke="#888888" stroke-width="1.7" points="529.85,-57.81 532.63,-53.3 527.64,-55.1 529.85,-57.81"/>
</g>
<!-- svc_jira -->
<g id="node16" class="node">
<title>svc_jira</title>
<ellipse fill="#f0f0f0" stroke="black" stroke-width="2.2" cx="1198" cy="-34" rx="27" ry="18"/>
<text xml:space="preserve" text-anchor="middle" x="1198" y="-30.12" font-family="Helvetica,sans-Serif" font-size="10.00">Jira</text>
</g>
<!-- start&#45;my&#45;day&#45;&gt;svc_jira -->
<g id="edge8" class="edge">
<title>start&#45;my&#45;day&#45;&gt;svc_jira</title>
<path fill="none" stroke="#888888" stroke-width="1.3" stroke-dasharray="5,2" d="M248.28,-284.88C255.19,-283.03 262.28,-281.17 269,-279.5 293.31,-273.46 1126.99,-94.95 1149,-83 1161.36,-76.29 1172.75,-65.55 1181.43,-55.93"/>
<polygon fill="#888888" stroke="#888888" stroke-width="1.3" points="1182.7,-57.14 1184.67,-52.22 1180.06,-54.84 1182.7,-57.14"/>
</g>
<!-- svc_slack -->
<g id="node19" class="node">
<title>svc_slack</title>
<ellipse fill="#f0f0f0" stroke="black" stroke-width="4" cx="679" cy="-34" rx="27" ry="18"/>
<text xml:space="preserve" text-anchor="middle" x="679" y="-30.12" font-family="Helvetica,sans-Serif" font-size="10.00">Slack</text>
</g>
<!-- start&#45;my&#45;day&#45;&gt;svc_slack -->
<g id="edge7" class="edge">
<title>start&#45;my&#45;day&#45;&gt;svc_slack</title>
<path fill="none" stroke="#888888" stroke-width="2.5" stroke-dasharray="5,2" d="M248.29,-284.55C287.19,-273.05 346.95,-254.77 398,-236.5 514.41,-194.84 535.93,-163.23 630,-83 639.53,-74.87 649.5,-65.32 657.94,-56.89"/>
<polygon fill="#888888" stroke="#888888" stroke-width="2.5" points="659.13,-58.17 661.41,-53.39 656.64,-55.71 659.13,-58.17"/>
</g>
<!-- end&#45;my&#45;day -->
<g id="node2" class="node">
<title>end&#45;my&#45;day</title>
<g id="a_node2"><a xlink:title="End of day wrap&#45;up">
<path fill="#e8b4b8" stroke="black" stroke-width="4" d="M354,-315.5C354,-315.5 302,-315.5 302,-315.5 296,-315.5 290,-309.5 290,-303.5 290,-303.5 290,-291.5 290,-291.5 290,-285.5 296,-279.5 302,-279.5 302,-279.5 354,-279.5 354,-279.5 360,-279.5 366,-285.5 366,-291.5 366,-291.5 366,-303.5 366,-303.5 366,-309.5 360,-315.5 354,-315.5"/>
<text xml:space="preserve" text-anchor="middle" x="328" y="-293.05" font-family="Helvetica,sans-Serif" font-size="11.00">/end&#45;my&#45;day</text>
</a>
</g>
</g>
<!-- end&#45;my&#45;day&#45;&gt;sync&#45;meetings -->
<g id="edge3" class="edge">
<title>end&#45;my&#45;day&#45;&gt;sync&#45;meetings</title>
<path fill="none" stroke="#cc4444" stroke-width="2" d="M310.7,-277.63C290.43,-255.53 256.69,-218.75 233.68,-193.66"/>
<polygon fill="#cc4444" stroke="#cc4444" stroke-width="2" points="235.84,-191.87 228.37,-187.87 231.71,-195.66 235.84,-191.87"/>
<text xml:space="preserve" text-anchor="middle" x="281.44" y="-227.95" font-family="Helvetica,sans-Serif" font-size="9.00">calls</text>
</g>
<!-- braindump -->
<g id="node5" class="node">
<title>braindump</title>
<g id="a_node5"><a xlink:title="Quick thought capture">
<path fill="#e8b4b8" stroke="black" stroke-width="2.8" d="M354,-183.75C354,-183.75 308,-183.75 308,-183.75 302,-183.75 296,-177.75 296,-171.75 296,-171.75 296,-159.75 296,-159.75 296,-153.75 302,-147.75 308,-147.75 308,-147.75 354,-147.75 354,-147.75 360,-147.75 366,-153.75 366,-159.75 366,-159.75 366,-171.75 366,-171.75 366,-177.75 360,-183.75 354,-183.75"/>
<text xml:space="preserve" text-anchor="middle" x="331" y="-161.3" font-family="Helvetica,sans-Serif" font-size="11.00">/braindump</text>
</a>
</g>
</g>
<!-- end&#45;my&#45;day&#45;&gt;braindump -->
<g id="edge4" class="edge">
<title>end&#45;my&#45;day&#45;&gt;braindump</title>
<path fill="none" stroke="#cc4444" stroke-width="2" d="M328.44,-277.63C328.93,-256.15 329.75,-220.81 330.33,-195.81"/>
<polygon fill="#cc4444" stroke="#cc4444" stroke-width="2" points="333.13,-195.89 330.51,-187.83 327.53,-195.76 333.13,-195.89"/>
<text xml:space="preserve" text-anchor="middle" x="338.96" y="-227.95" font-family="Helvetica,sans-Serif" font-size="9.00">calls</text>
</g>
<!-- svc_notion -->
<g id="node17" class="node">
<title>svc_notion</title>
<ellipse fill="#f0f0f0" stroke="black" stroke-width="3.4" cx="905" cy="-34" rx="27" ry="18"/>
<text xml:space="preserve" text-anchor="middle" x="905" y="-30.12" font-family="Helvetica,sans-Serif" font-size="10.00">Notion</text>
</g>
<!-- end&#45;my&#45;day&#45;&gt;svc_notion -->
<g id="edge9" class="edge">
<title>end&#45;my&#45;day&#45;&gt;svc_notion</title>
<path fill="none" stroke="#888888" stroke-width="2.1" stroke-dasharray="5,2" d="M367.9,-295.74C440.25,-292.73 595.84,-278.67 707,-214.75 782.52,-171.33 853.71,-94.99 886.34,-57.31"/>
<polygon fill="#888888" stroke="#888888" stroke-width="2.1" points="887.61,-58.52 889.54,-53.59 884.96,-56.24 887.61,-58.52"/>
</g>
<!-- svc_obsidian_cli -->
<g id="node18" class="node">
<title>svc_obsidian_cli</title>
<ellipse fill="#f0f0f0" stroke="black" stroke-width="2.8" cx="792" cy="-34" rx="43.19" ry="18"/>
<text xml:space="preserve" text-anchor="middle" x="792" y="-30.12" font-family="Helvetica,sans-Serif" font-size="10.00">Obsidian CLI</text>
</g>
<!-- end&#45;my&#45;day&#45;&gt;svc_obsidian_cli -->
<g id="edge11" class="edge">
<title>end&#45;my&#45;day&#45;&gt;svc_obsidian_cli</title>
<path fill="none" stroke="#888888" stroke-width="1.7" stroke-dasharray="5,2" d="M367.76,-295.19C430.65,-291.25 554.28,-275.68 636,-214.75 697.06,-169.22 751.07,-96.06 776.52,-58.67"/>
<polygon fill="#888888" stroke="#888888" stroke-width="1.7" points="777.87,-59.81 779.21,-54.68 774.97,-57.85 777.87,-59.81"/>
</g>
<!-- end&#45;my&#45;day&#45;&gt;svc_slack -->
<g id="edge10" class="edge">
<title>end&#45;my&#45;day&#45;&gt;svc_slack</title>
<path fill="none" stroke="#888888" stroke-width="2.5" stroke-dasharray="5,2" d="M367.8,-294.32C415.33,-289.92 495.26,-276.63 550,-236.5 612.5,-190.68 652.41,-104.63 669.47,-61.32"/>
<polygon fill="#888888" stroke="#888888" stroke-width="2.5" points="671.05,-62.08 671.22,-56.78 667.79,-60.82 671.05,-62.08"/>
</g>
<!-- sync&#45;meetings&#45;&gt;svc_google_calendar -->
<g id="edge13" class="edge">
<title>sync&#45;meetings&#45;&gt;svc_google_calendar</title>
<path fill="none" stroke="#888888" stroke-width="1.7" stroke-dasharray="5,2" d="M240.1,-145.87C266.29,-130.58 305.12,-109.29 341,-95 395.05,-73.47 459.66,-56.55 503.84,-46.25"/>
<polygon fill="#888888" stroke="#888888" stroke-width="1.7" points="504.04,-48 508.52,-45.17 503.25,-44.59 504.04,-48"/>
</g>
<!-- sync&#45;meetings&#45;&gt;svc_notion -->
<g id="edge12" class="edge">
<title>sync&#45;meetings&#45;&gt;svc_notion</title>
<path fill="none" stroke="#888888" stroke-width="2.1" stroke-dasharray="5,2" d="M254.31,-145.8C261.15,-143.46 268.2,-141.34 275,-139.75 306.63,-132.36 827.63,-96.88 857,-83 869.06,-77.3 879.84,-67.26 888.12,-57.82"/>
<polygon fill="#888888" stroke="#888888" stroke-width="2.1" points="889.28,-59.16 891.14,-54.2 886.59,-56.92 889.28,-59.16"/>
</g>
<!-- personal&#45;assistant&#45;&gt;svc_google_calendar -->
<g id="edge14" class="edge">
<title>personal&#45;assistant&#45;&gt;svc_google_calendar</title>
<path fill="none" stroke="#888888" stroke-width="1.7" stroke-dasharray="5,2" d="M122.96,-146.36C130.02,-144.07 137.17,-141.81 144,-139.75 272.33,-100.99 425.97,-64.5 504.39,-46.57"/>
<polygon fill="#888888" stroke="#888888" stroke-width="1.7" points="504.75,-48.28 509.24,-45.46 503.97,-44.87 504.75,-48.28"/>
</g>
<!-- personal&#45;assistant&#45;&gt;svc_slack -->
<g id="edge15" class="edge">
<title>personal&#45;assistant&#45;&gt;svc_slack</title>
<path fill="none" stroke="#888888" stroke-width="2.5" stroke-dasharray="5,2" d="M119.44,-146.37C127.57,-143.86 135.96,-141.54 144,-139.75 356.27,-92.51 433.77,-176.74 630,-83 641.93,-77.3 652.73,-67.51 661.14,-58.26"/>
<polygon fill="#888888" stroke="#888888" stroke-width="2.5" points="662.4,-59.47 664.34,-54.54 659.75,-57.18 662.4,-59.47"/>
</g>
<!-- braindump&#45;&gt;svc_obsidian_cli -->
<g id="edge16" class="edge">
<title>braindump&#45;&gt;svc_obsidian_cli</title>
<path fill="none" stroke="#888888" stroke-width="1.7" stroke-dasharray="5,2" d="M367.4,-162.58C439.3,-157.16 603.37,-139.15 728,-83 742.67,-76.39 757.16,-65.94 768.64,-56.47"/>
<polygon fill="#888888" stroke="#888888" stroke-width="1.7" points="769.7,-57.87 772.38,-53.3 767.44,-55.2 769.7,-57.87"/>
</g>
<!-- tdd -->
<g id="node6" class="node">
<title>tdd</title>
<g id="a_node6"><a xlink:title="Test&#45;driven development loop">
<path fill="#b8d4b8" stroke="black" stroke-width="1.5" d="M1191,-183.75C1191,-183.75 1161,-183.75 1161,-183.75 1155,-183.75 1149,-177.75 1149,-171.75 1149,-171.75 1149,-159.75 1149,-159.75 1149,-153.75 1155,-147.75 1161,-147.75 1161,-147.75 1191,-147.75 1191,-147.75 1197,-147.75 1203,-153.75 1203,-159.75 1203,-159.75 1203,-171.75 1203,-171.75 1203,-177.75 1197,-183.75 1191,-183.75"/>
<text xml:space="preserve" text-anchor="middle" x="1176" y="-161.3" font-family="Helvetica,sans-Serif" font-size="11.00">/tdd</text>
</a>
</g>
</g>
<!-- svc_github -->
<g id="node13" class="node">
<title>svc_github</title>
<ellipse fill="#f0f0f0" stroke="black" stroke-width="1.6" cx="1100" cy="-34" rx="27.66" ry="18"/>
<text xml:space="preserve" text-anchor="middle" x="1100" y="-30.12" font-family="Helvetica,sans-Serif" font-size="10.00">GitHub</text>
</g>
<!-- tdd&#45;&gt;svc_github -->
<g id="edge17" class="edge">
<title>tdd&#45;&gt;svc_github</title>
<path fill="none" stroke="#888888" stroke-width="0.9" stroke-dasharray="5,2" d="M1165.75,-147.25C1152.04,-123.84 1127.73,-82.34 1112.82,-56.89"/>
<polygon fill="#888888" stroke="#888888" stroke-width="0.9" points="1114.33,-56.01 1110.3,-52.58 1111.31,-57.78 1114.33,-56.01"/>
</g>
<!-- create&#45;mr -->
<g id="node7" class="node">
<title>create&#45;mr</title>
<g id="a_node7"><a xlink:title="Create a GitLab merge request">
<path fill="#b8d4b8" stroke="black" stroke-width="1.5" d="M1093.75,-183.75C1093.75,-183.75 1052.25,-183.75 1052.25,-183.75 1046.25,-183.75 1040.25,-177.75 1040.25,-171.75 1040.25,-171.75 1040.25,-159.75 1040.25,-159.75 1040.25,-153.75 1046.25,-147.75 1052.25,-147.75 1052.25,-147.75 1093.75,-147.75 1093.75,-147.75 1099.75,-147.75 1105.75,-153.75 1105.75,-159.75 1105.75,-159.75 1105.75,-171.75 1105.75,-171.75 1105.75,-177.75 1099.75,-183.75 1093.75,-183.75"/>
<text xml:space="preserve" text-anchor="middle" x="1073" y="-161.3" font-family="Helvetica,sans-Serif" font-size="11.00">/create&#45;mr</text>
</a>
</g>
</g>
<!-- svc_gitlab -->
<g id="node14" class="node">
<title>svc_gitlab</title>
<ellipse fill="#f0f0f0" stroke="black" stroke-width="1.6" cx="1002" cy="-34" rx="27" ry="18"/>
<text xml:space="preserve" text-anchor="middle" x="1002" y="-30.12" font-family="Helvetica,sans-Serif" font-size="10.00">GitLab</text>
</g>
<!-- create&#45;mr&#45;&gt;svc_gitlab -->
<g id="edge18" class="edge">
<title>create&#45;mr&#45;&gt;svc_gitlab</title>
<path fill="none" stroke="#888888" stroke-width="0.9" stroke-dasharray="5,2" d="M1063.42,-147.25C1050.62,-123.84 1027.91,-82.34 1013.98,-56.89"/>
<polygon fill="#888888" stroke="#888888" stroke-width="0.9" points="1015.57,-56.15 1011.63,-52.6 1012.5,-57.83 1015.57,-56.15"/>
</g>
<!-- review&#45;rfc -->
<g id="node8" class="node">
<title>review&#45;rfc</title>
<g id="a_node8"><a xlink:title="Review an RFC from Notion">
<path fill="#b8d4b8" stroke="black" stroke-width="1.5" d="M985.12,-183.75C985.12,-183.75 942.88,-183.75 942.88,-183.75 936.88,-183.75 930.88,-177.75 930.88,-171.75 930.88,-171.75 930.88,-159.75 930.88,-159.75 930.88,-153.75 936.88,-147.75 942.88,-147.75 942.88,-147.75 985.12,-147.75 985.12,-147.75 991.12,-147.75 997.12,-153.75 997.12,-159.75 997.12,-159.75 997.12,-171.75 997.12,-171.75 997.12,-177.75 991.12,-183.75 985.12,-183.75"/>
<text xml:space="preserve" text-anchor="middle" x="964" y="-161.3" font-family="Helvetica,sans-Serif" font-size="11.00">/review&#45;rfc</text>
</a>
</g>
</g>
<!-- review&#45;rfc&#45;&gt;svc_notion -->
<g id="edge19" class="edge">
<title>review&#45;rfc&#45;&gt;svc_notion</title>
<path fill="none" stroke="#888888" stroke-width="2.1" stroke-dasharray="5,2" d="M956.04,-147.25C945.79,-124.71 927.92,-85.4 916.27,-59.79"/>
<polygon fill="#888888" stroke="#888888" stroke-width="2.1" points="918,-59.36 914.34,-55.53 914.81,-60.81 918,-59.36"/>
</g>
<!-- review&#45;rfc&#45;&gt;svc_slack -->
<g id="edge20" class="edge">
<title>review&#45;rfc&#45;&gt;svc_slack</title>
<path fill="none" stroke="#888888" stroke-width="2.5" stroke-dasharray="5,2" d="M930.5,-158.22C882.61,-147.81 793.06,-124.3 727,-83 716.33,-76.33 706.21,-66.87 698.04,-58.11"/>
<polygon fill="#888888" stroke="#888888" stroke-width="2.5" points="699.36,-56.97 694.72,-54.42 696.76,-59.31 699.36,-56.97"/>
</g>
<!-- grill&#45;me -->
<g id="node9" class="node">
<title>grill&#45;me</title>
<g id="a_node9"><a xlink:title="Stress&#45;test a plan or design">
<path fill="#d0d0d0" stroke="black" stroke-width="2.8" d="M1548.12,-52C1548.12,-52 1517.88,-52 1517.88,-52 1511.88,-52 1505.88,-46 1505.88,-40 1505.88,-40 1505.88,-28 1505.88,-28 1505.88,-22 1511.88,-16 1517.88,-16 1517.88,-16 1548.12,-16 1548.12,-16 1554.12,-16 1560.12,-22 1560.12,-28 1560.12,-28 1560.12,-40 1560.12,-40 1560.12,-46 1554.12,-52 1548.12,-52"/>
<text xml:space="preserve" text-anchor="middle" x="1533" y="-29.55" font-family="Helvetica,sans-Serif" font-size="11.00">/grill&#45;me</text>
</a>
</g>
</g>
<!-- create&#45;jira -->
<g id="node10" class="node">
<title>create&#45;jira</title>
<g id="a_node10"><a xlink:title="Turn ideas into Jira tickets">
<path fill="#d0d0d0" stroke="black" stroke-width="2.8" d="M1547.5,-183.75C1547.5,-183.75 1504.5,-183.75 1504.5,-183.75 1498.5,-183.75 1492.5,-177.75 1492.5,-171.75 1492.5,-171.75 1492.5,-159.75 1492.5,-159.75 1492.5,-153.75 1498.5,-147.75 1504.5,-147.75 1504.5,-147.75 1547.5,-147.75 1547.5,-147.75 1553.5,-147.75 1559.5,-153.75 1559.5,-159.75 1559.5,-159.75 1559.5,-171.75 1559.5,-171.75 1559.5,-177.75 1553.5,-183.75 1547.5,-183.75"/>
<text xml:space="preserve" text-anchor="middle" x="1526" y="-161.3" font-family="Helvetica,sans-Serif" font-size="11.00">/create&#45;jira</text>
</a>
</g>
</g>
<!-- create&#45;jira&#45;&gt;grill&#45;me -->
<g id="edge5" class="edge">
<title>create&#45;jira&#45;&gt;grill&#45;me</title>
<path fill="none" stroke="#cc4444" stroke-width="2" d="M1526.99,-146.44C1528.15,-124.99 1530.08,-89.2 1531.44,-63.98"/>
<polygon fill="#cc4444" stroke="#cc4444" stroke-width="2" points="1534.22,-64.38 1531.85,-56.24 1528.63,-64.08 1534.22,-64.38"/>
<text xml:space="preserve" text-anchor="middle" x="1539.08" y="-96.2" font-family="Helvetica,sans-Serif" font-size="9.00">calls</text>
</g>
<!-- create&#45;jira&#45;&gt;svc_jira -->
<g id="edge21" class="edge">
<title>create&#45;jira&#45;&gt;svc_jira</title>
<path fill="none" stroke="#888888" stroke-width="1.3" stroke-dasharray="5,2" d="M1491.39,-149.08C1483.46,-145.77 1475.01,-142.46 1467,-139.75 1371.36,-107.35 1334.94,-132.63 1247,-83 1234.92,-76.19 1223.7,-65.64 1215.04,-56.17"/>
<polygon fill="#888888" stroke="#888888" stroke-width="1.3" points="1216.44,-55.1 1211.82,-52.52 1213.82,-57.42 1216.44,-55.1"/>
</g>
<!-- write&#45;post&#45;mortem -->
<g id="node11" class="node">
<title>write&#45;post&#45;mortem</title>
<g id="a_node11"><a xlink:title="Draft incident post&#45;mortems">
<path fill="#d4c4a8" stroke="black" stroke-width="1.5" d="M1340.38,-183.75C1340.38,-183.75 1257.62,-183.75 1257.62,-183.75 1251.62,-183.75 1245.62,-177.75 1245.62,-171.75 1245.62,-171.75 1245.62,-159.75 1245.62,-159.75 1245.62,-153.75 1251.62,-147.75 1257.62,-147.75 1257.62,-147.75 1340.38,-147.75 1340.38,-147.75 1346.38,-147.75 1352.38,-153.75 1352.38,-159.75 1352.38,-159.75 1352.38,-171.75 1352.38,-171.75 1352.38,-177.75 1346.38,-183.75 1340.38,-183.75"/>
<text xml:space="preserve" text-anchor="middle" x="1299" y="-161.3" font-family="Helvetica,sans-Serif" font-size="11.00">/write&#45;post&#45;mortem</text>
</a>
</g>
</g>
<!-- write&#45;post&#45;mortem&#45;&gt;svc_notion -->
<g id="edge22" class="edge">
<title>write&#45;post&#45;mortem&#45;&gt;svc_notion</title>
<path fill="none" stroke="#888888" stroke-width="2.1" stroke-dasharray="5,2" d="M1258.12,-147.06C1218.3,-130.65 1155.66,-107.02 1099,-95 1067.37,-88.29 983.4,-96.44 954,-83 941.74,-77.39 930.74,-67.36 922.29,-57.91"/>
<polygon fill="#888888" stroke="#888888" stroke-width="2.1" points="923.75,-56.93 919.17,-54.26 921.08,-59.2 923.75,-56.93"/>
</g>
<!-- write&#45;post&#45;mortem&#45;&gt;svc_slack -->
<g id="edge23" class="edge">
<title>write&#45;post&#45;mortem&#45;&gt;svc_slack</title>
<path fill="none" stroke="#888888" stroke-width="2.5" stroke-dasharray="5,2" d="M1248.62,-147.02C1239.51,-144.27 1230.04,-141.7 1221,-139.75 1194,-133.93 751.88,-95.01 727,-83 715.22,-77.31 704.62,-67.52 696.41,-58.27"/>
<polygon fill="#888888" stroke="#888888" stroke-width="2.5" points="697.86,-57.27 693.3,-54.58 695.18,-59.53 697.86,-57.27"/>
</g>
<!-- svc_incident_io -->
<g id="node20" class="node">
<title>svc_incident_io</title>
<ellipse fill="#f0f0f0" stroke="black" stroke-width="1.6" cx="1304" cy="-34" rx="35.65" ry="18"/>
<text xml:space="preserve" text-anchor="middle" x="1304" y="-30.12" font-family="Helvetica,sans-Serif" font-size="10.00">incident.io</text>
</g>
<!-- write&#45;post&#45;mortem&#45;&gt;svc_incident_io -->
<g id="edge24" class="edge">
<title>write&#45;post&#45;mortem&#45;&gt;svc_incident_io</title>
<path fill="none" stroke="#888888" stroke-width="0.9" stroke-dasharray="5,2" d="M1299.67,-147.25C1300.55,-124.42 1302.1,-84.38 1303.08,-58.81"/>
<polygon fill="#888888" stroke="#888888" stroke-width="0.9" points="1304.82,-59.06 1303.27,-54 1301.33,-58.93 1304.82,-59.06"/>
</g>
<!-- growth -->
<g id="node12" class="node">
<title>growth</title>
<g id="a_node12"><a xlink:title="Track accomplishments against competency matrix">
<path fill="#d0d0d0" stroke="black" stroke-width="1.5" d="M1437,-183.75C1437,-183.75 1407,-183.75 1407,-183.75 1401,-183.75 1395,-177.75 1395,-171.75 1395,-171.75 1395,-159.75 1395,-159.75 1395,-153.75 1401,-147.75 1407,-147.75 1407,-147.75 1437,-147.75 1437,-147.75 1443,-147.75 1449,-153.75 1449,-159.75 1449,-159.75 1449,-171.75 1449,-171.75 1449,-177.75 1443,-183.75 1437,-183.75"/>
<text xml:space="preserve" text-anchor="middle" x="1422" y="-161.3" font-family="Helvetica,sans-Serif" font-size="11.00">/growth</text>
</a>
</g>
</g>
<!-- growth&#45;&gt;svc_obsidian_cli -->
<g id="edge25" class="edge">
<title>growth&#45;&gt;svc_obsidian_cli</title>
<path fill="none" stroke="#888888" stroke-width="1.7" stroke-dasharray="5,2" d="M1394.35,-149.33C1386.67,-145.64 1378.18,-142.1 1370,-139.75 1149.49,-76.54 1070.61,-166.62 857,-83 841.51,-76.94 826.42,-66.19 814.69,-56.4"/>
<polygon fill="#888888" stroke="#888888" stroke-width="1.7" points="816.09,-55.3 811.16,-53.37 813.81,-57.96 816.09,-55.3"/>
</g>
</g>
</svg>
